HIERARCHY
ROOT Hips
{
	OFFSET 0.000000 0.000000 0.000000 
	CHANNELS 6 Xposition Yposition Zposition Zrotation Yrotation Xrotation
	JOINT LeftUpLeg
	{
		OFFSET 1.363060 -1.794630 0.839290 
		CHANNELS 3 Zrotation Yrotation Xrotation
		JOINT LeftLeg
		{
			OFFSET 2.448110 -6.726130 0.000000 
			CHANNELS 3 Zrotation Yrotation Xrotation
			JOINT LeftFoot
			{
				OFFSET 2.562200 -7.039590 0.000000 
				CHANNELS 3 Zrotation Yrotation Xrotation
				JOINT LeftToeBase
				{
					OFFSET 0.157640 -0.433110 2.322550 
					CHANNELS 3 Zrotation Yrotation Xrotation
					End Site
					{
						OFFSET 0.000000 0.000000 0.000000 
					}
				}
			}
		}
	}
	JOINT RightUpLeg
	{
		OFFSET -1.305520 -1.794630 0.839290 
		CHANNELS 3 Zrotation Yrotation Xrotation
		JOINT RightLeg
		{
			OFFSET -2.542530 -6.985550 0.000000 
			CHANNELS 3 Zrotation Yrotation Xrotation
			JOINT RightFoot
			{
				OFFSET -2.568260 -7.056230 0.000000 
				CHANNELS 3 Zrotation Yrotation Xrotation
				JOINT RightToeBase
				{
					OFFSET -0.164730 -0.452590 2.363150 
					CHANNELS 3 Zrotation Yrotation Xrotation
					End Site
					{
						OFFSET 0.000000 0.000000 0.000000 
					}
				}
			}
		}
	}
	JOINT Spine
	{
		OFFSET 0.028270 2.035590 -0.193380 
		CHANNELS 3 Zrotation Yrotation Xrotation
		JOINT Spine1
		{
			OFFSET 0.056720 2.048850 -0.042750 
			CHANNELS 3 Zrotation Yrotation Xrotation
			JOINT Neck1
			{
				OFFSET -0.054170 1.746240 0.172020 
				CHANNELS 3 Zrotation Yrotation Xrotation
				JOINT Head
				{
					OFFSET 0.104070 1.761360 -0.123970 
					CHANNELS 3 Zrotation Yrotation Xrotation
					End Site
					{
						OFFSET 0.000000 0.000000 0.000000 
					}
				}
			}
			JOINT LeftArm
			{
				OFFSET 3.362410 1.200890 -0.311210 
				CHANNELS 3 Zrotation Yrotation Xrotation
				JOINT LeftForeArm
				{
					OFFSET 4.983000 -0.000000 -0.000000 
					CHANNELS 3 Zrotation Yrotation Xrotation
					JOINT LeftHand
					{
						OFFSET 3.483560 -0.000000 -0.000000 
						CHANNELS 3 Zrotation Yrotation Xrotation
						JOINT LeftHandIndex1
						{
							OFFSET 0.715260 -0.000000 -0.000000 
							CHANNELS 3 Zrotation Yrotation Xrotation
							End Site
							{
								OFFSET 0.000000 0.000000 0.000000 
							}
						}
					}
				}
			}
			JOINT RightArm
			{
				OFFSET -3.136600 1.374050 -0.404650 
				CHANNELS 3 Zrotation Yrotation Xrotation
				JOINT RightForeArm
				{
					OFFSET -5.241900 -0.000000 -0.000000 
					CHANNELS 3 Zrotation Yrotation Xrotation
					JOINT RightHand
					{
						OFFSET -3.444170 -0.000000 -0.000000 
						CHANNELS 3 Zrotation Yrotation Xrotation
						JOINT RightHandIndex1
						{
							OFFSET -0.622530 -0.000000 -0.000000 
							CHANNELS 3 Zrotation Yrotation Xrotation
							End Site
							{
								OFFSET 0.000000 0.000000 0.000000 
							}
						}
					}
				}
			}
		}
	}
}
MOTION
Frames: 14
Frame Time: 0.041667
11.506012 17.839058 -16.345053 2.097889 -70.070043 7.711746 -12.601457 1.123319 -7.439535 -0.598267 2.895940 8.219158 0.543752 -2.077733 0.791607 0.744000 -5.510000 -15.369200 18.301608 0.255492 -10.253626 -1.234706 -8.186269 21.682514 2.705098 -13.012655 -11.179933 -0.162100 2.594200 -7.151000 1.320709 2.142497 -3.220235 1.953931 1.061860 1.339291 0.287538 14.490979 20.262499 2.110600 5.430500 12.927600 -90.351740 0.388175 19.962194 13.823365 -21.943478 -2.280216 0.576423 -1.858344 15.426910 -7.125000 0.000000 0.000000 88.617969 -0.238441 6.242120 -14.977165 25.080018 -3.471162 0.620966 0.278386 -3.758183 7.125000 0.000000 0.000000 
11.506908 17.838162 -16.346944 2.052737 -70.070962 7.747876 -12.565253 1.126963 -7.430124 -0.601703 2.880914 8.171420 0.516187 -1.886102 0.891024 0.655400 -5.178000 -14.417000 18.334212 0.299071 -10.228919 -1.236544 -8.187260 21.697171 2.675341 -12.915431 -11.249808 -0.158300 2.563400 -7.065600 2.395386 -0.232807 -3.320749 4.214704 -0.142006 1.517006 2.851097 18.443935 22.851117 4.524200 6.647000 13.799400 -93.400434 1.122330 14.193768 14.110330 -22.391652 -2.375206 0.562718 -1.925228 16.111957 -7.125000 0.000000 0.000000 85.541003 0.482317 12.085229 -14.674459 24.544911 -3.322081 0.634841 0.289519 -4.090499 7.125000 0.000000 0.000000 
11.507705 17.838759 -16.344953 2.041116 -70.057420 7.789430 -12.588226 1.098602 -7.455357 -0.602012 2.890693 8.192314 0.502815 -1.794434 0.886106 0.642800 -5.129100 -14.277300 18.313304 0.159509 -10.304235 -1.239006 -8.192770 21.714652 2.648157 -12.815961 -11.206253 -0.166200 2.626400 -7.240300 1.430019 1.947604 -3.195926 2.216524 0.936950 1.570827 2.749356 15.431488 22.617469 3.764700 5.688300 14.255200 -90.675429 0.194140 19.326846 13.775909 -21.853728 -2.245639 0.583231 -1.870919 15.737491 -7.125000 0.000000 0.000000 88.229261 -0.039765 7.330936 -14.936793 24.980697 -3.428195 0.644684 0.310748 -3.736050 7.125000 0.000000 0.000000 
11.508999 17.839058 -16.342265 1.977486 -70.017905 7.883241 -12.557374 1.060793 -7.488380 -0.602744 2.883945 8.179887 0.512684 -1.862244 0.913271 0.690600 -5.312700 -14.802600 18.347766 0.076828 -10.390661 -1.239715 -8.191152 21.713328 2.652835 -12.827535 -11.166147 -0.187500 2.789100 -7.692300 2.301736 -0.079614 -3.323635 3.936772 -0.062288 1.529183 2.648972 18.309274 22.571776 4.369700 6.627300 13.682700 -93.135247 1.109279 14.389063 14.096727 -22.372483 -2.370818 0.585982 -1.920796 16.301414 -7.125000 0.000000 0.000000 85.793102 0.322771 12.122670 -14.722286 24.594537 -3.326312 0.651957 0.311666 -4.530794 7.125000 0.000000 0.000000 
11.510094 17.837963 -16.344555 1.821649 -70.024547 8.039190 -12.508708 1.077341 -7.457567 -0.606818 2.853837 8.095858 0.523696 -1.935240 0.891438 0.678500 -5.267000 -14.671600 18.392837 0.196238 -10.361445 -1.241169 -8.195830 21.725423 2.672791 -12.902699 -11.214892 -0.195900 2.850400 -7.862600 1.303387 2.177488 -3.197681 1.839502 1.057892 1.539580 2.240582 15.215568 22.144670 3.412400 5.636800 14.068600 -90.329718 0.206951 19.589120 13.862582 -21.996272 -2.288300 0.620573 -1.865025 15.963105 -7.125000 0.000000 0.000000 88.626717 -0.139079 6.743630 -14.941888 24.996251 -3.425771 0.653622 0.301474 -3.781637 7.125000 0.000000 0.000000 
11.509397 17.837565 -16.346546 2.294260 -70.099618 7.491434 -12.669942 1.187565 -7.323396 -0.608040 2.819901 8.016269 0.534980 -2.025838 0.850344 0.609500 -4.996800 -13.899500 18.233562 0.273907 -10.221593 -1.239643 -8.203985 21.733020 2.671076 -12.900988 -11.237142 -0.187000 2.784800 -7.680300 2.236547 0.151773 -3.301077 3.878694 0.079360 1.329173 0.002992 17.291258 20.153395 2.712000 6.325500 12.480800 -93.028085 1.207320 14.518395 14.141736 -22.446385 -2.391832 0.619382 -1.921796 16.509383 -7.125000 0.000000 0.000000 85.973457 0.101468 11.777154 -14.702628 24.537039 -3.296751 0.669014 0.315627 -3.360333 7.125000 0.000000 0.000000 
11.507705 17.838859 -16.345351 2.824927 -70.184042 6.927185 -12.901576 1.277809 -7.217801 -0.610461 2.788995 7.937418 0.539273 -2.073545 0.907151 0.653000 -5.168800 -14.390800 18.013659 0.246762 -10.136307 -1.236940 -8.208902 21.733089 2.654936 -12.846923 -11.246631 -0.182200 2.749100 -7.580900 1.268290 2.281491 -3.178789 1.969724 1.135702 1.306036 -0.681009 14.292416 19.491725 1.574200 5.345300 12.525500 -90.378809 0.374407 19.518667 13.868380 -22.006990 -2.283367 0.632056 -1.872187 16.000036 -7.125000 0.000000 0.000000 88.722098 -0.325798 6.582639 -14.898824 24.896132 -3.390074 0.661176 0.309132 -2.698043 7.125000 0.000000 0.000000 
11.506410 17.840651 -16.345550 2.828952 -70.104246 6.949912 -12.867972 1.213314 -7.188937 -0.615746 2.756305 7.849842 0.540477 -2.079631 0.895050 0.769100 -5.600000 -15.628100 18.051447 0.199182 -10.198929 -1.238272 -8.210284 21.737500 2.690480 -12.969014 -11.234574 -0.195800 2.849500 -7.859900 2.257069 0.034468 -3.281961 4.027878 0.022840 1.361308 -0.679976 17.263805 19.493091 2.350300 6.334400 12.111100 -93.134642 1.212855 14.361813 14.218565 -22.553814 -2.399208 0.624812 -1.943415 16.371230 -7.125000 0.000000 0.000000 86.000079 0.329389 11.288533 -14.593839 24.410488 -3.268703 0.651304 0.279621 -3.819644 7.125000 0.000000 0.000000 
11.506112 17.839954 -16.347840 2.577693 -70.022555 7.226777 -12.773795 1.133950 -7.189087 -0.618473 2.746206 7.819229 0.544690 -2.101704 0.814759 0.826000 -5.798500 -16.200900 18.148089 0.164371 -10.268745 -1.240390 -8.210900 21.740372 2.724843 -13.084638 -11.197950 -0.186300 2.780100 -7.667100 1.273934 2.220761 -3.204039 1.929070 1.107072 1.322632 -0.597569 14.403768 19.728578 1.616900 5.391300 12.650200 -90.246929 0.461292 19.759336 13.938422 -22.114610 -2.301622 0.659452 -1.880937 15.838274 -7.125000 0.000000 0.000000 88.786623 -0.203587 5.929078 -14.860696 24.894789 -3.402861 0.636722 0.268820 -3.674993 7.125000 0.000000 0.000000 
11.506311 17.838062 -16.352022 2.514233 -70.029965 7.276374 -12.710304 1.138418 -7.236845 -0.613810 2.776423 7.902026 0.549939 -2.133015 0.820181 0.891400 -6.017800 -16.836200 18.196835 0.256302 -10.205383 -1.237458 -8.203878 21.723067 2.714024 -13.054686 -11.267552 -0.157800 2.559500 -7.054800 2.255628 0.077998 -3.292039 3.960461 0.047407 1.356163 -0.664032 17.299914 19.715193 2.358300 6.335500 12.248500 -93.020432 1.242619 14.280237 14.155764 -22.477373 -2.399714 0.658682 -1.922759 16.674183 -7.125000 0.000000 0.000000 86.002741 0.250181 11.593374 -14.631135 24.446490 -3.274414 0.661343 0.296065 -3.593826 7.125000 0.000000 0.000000 
11.504618 17.839158 -16.353316 2.424141 -70.079453 7.335699 -12.681897 1.172142 -7.285443 -0.605931 2.825855 8.036466 0.559800 -2.199994 0.817623 0.826400 -5.800000 -16.205200 18.209727 0.277226 -10.134292 -1.232014 -8.192072 21.689173 2.680511 -12.943254 -11.311154 -0.160100 2.578400 -7.107100 1.390869 2.088836 -3.240476 2.186844 1.048456 1.225371 -0.677937 14.713762 19.862478 1.643600 5.485600 12.651600 -90.536058 0.654679 18.905332 13.805421 -21.927851 -2.275716 0.648339 -1.860090 16.272194 -7.125000 0.000000 0.000000 88.402791 -0.477767 7.256184 -14.861724 24.832126 -3.371769 0.665023 0.303714 -2.993731 7.125000 0.000000 0.000000 
11.503822 17.840751 -16.351524 2.362027 -70.029468 7.411366 -12.641596 1.113085 -7.347698 -0.600036 2.872477 8.162553 0.559129 -2.187908 0.753448 0.695000 -5.329100 -14.849500 18.247613 0.145990 -10.183697 -1.227353 -8.177627 21.649668 2.646946 -12.818993 -11.242578 -0.172400 2.674500 -7.373900 2.235869 0.192751 -3.294994 3.912606 0.108997 1.331593 -0.868263 17.199838 19.731349 2.220800 6.293500 12.303200 -92.923650 1.215749 14.342208 13.990860 -22.225040 -2.335869 0.593525 -1.908252 16.587029 -7.125000 0.000000 0.000000 86.017856 0.137391 11.830980 -14.600904 24.380154 -3.246219 0.676189 0.302883 -3.632414 7.125000 0.000000 0.000000 
11.505216 17.841049 -16.352619 2.056278 -69.970386 7.745998 -12.536632 1.033055 -7.432928 -0.597233 2.906343 8.249320 0.552650 -2.134480 0.710337 0.679500 -5.270800 -14.682600 18.352279 0.158314 -10.220293 -1.225775 -8.167519 21.625222 2.660975 -12.864526 -11.216081 -0.177400 2.713200 -7.481200 1.226535 2.430989 -3.225528 1.730536 1.217008 1.263005 -0.688018 14.181656 19.865452 1.515200 5.298900 12.751500 -90.091083 0.421484 19.527105 13.702897 -21.758655 -2.227204 0.589458 -1.852104 16.274787 -7.125000 0.000000 0.000000 88.887667 -0.418372 6.315722 -14.851299 24.843624 -3.371032 0.666388 0.285303 -3.569823 7.125000 0.000000 0.000000 
11.505614 17.840950 -16.355706 2.018993 -70.005691 7.758959 -12.499305 1.075651 -7.433007 -0.595933 2.909540 8.257994 0.556663 -2.157560 0.676921 0.683700 -5.286700 -14.728000 18.390733 0.244845 -10.180903 -1.227603 -8.170308 21.632802 2.703027 -13.011359 -11.219690 -0.175900 2.701400 -7.448400 2.285863 0.111819 -3.321079 3.948229 0.069972 1.271922 -0.613192 17.282774 19.754994 2.386600 6.322200 12.214400 -93.111961 1.297331 13.704416 14.040700 -22.296478 -2.346785 0.579088 -1.918190 17.132461 -7.125000 0.000000 0.000000 85.941245 0.193892 11.502886 -14.554918 24.341793 -3.241799 0.663553 0.276931 -3.998330 7.125000 0.000000 0.000000 
